<mxfile host="app.diagrams.net" agent="Mozilla/5.0 (Windows NT 10.0; Win64; x64) AppleWebKit/537.36 (KHTML, like Gecko) Chrome/135.0.0.0 Safari/537.36" version="26.2.10">
  <diagram name="Strona-1" id="3jw3794jkZ1BxiJH3OJ3">
    <mxGraphModel dx="1085" dy="1286" grid="1" gridSize="10" guides="1" tooltips="1" connect="1" arrows="1" fold="1" page="1" pageScale="1" pageWidth="827" pageHeight="1169" math="0" shadow="0">
      <root>
        <mxCell id="0" />
        <mxCell id="1" parent="0" />
        <mxCell id="SJhHL3FRq7F6iEyKLstd-1" value="Przesyłka" style="html=1;whiteSpace=wrap;" parent="1" vertex="1">
          <mxGeometry x="399" y="410" width="216" height="30" as="geometry" />
        </mxCell>
        <mxCell id="SJhHL3FRq7F6iEyKLstd-2" value="Kurier" style="html=1;whiteSpace=wrap;" parent="1" vertex="1">
          <mxGeometry x="409" y="80" width="110" height="30" as="geometry" />
        </mxCell>
        <mxCell id="SJhHL3FRq7F6iEyKLstd-3" value="Użytkownik" style="html=1;whiteSpace=wrap;" parent="1" vertex="1">
          <mxGeometry x="400" y="210" width="215" height="35" as="geometry" />
        </mxCell>
        <mxCell id="SJhHL3FRq7F6iEyKLstd-4" value="Klient" style="html=1;whiteSpace=wrap;" parent="1" vertex="1">
          <mxGeometry x="590" y="80" width="110" height="30" as="geometry" />
        </mxCell>
        <mxCell id="SJhHL3FRq7F6iEyKLstd-5" value="Płatność" style="html=1;whiteSpace=wrap;" parent="1" vertex="1">
          <mxGeometry x="90" y="380" width="130" height="30" as="geometry" />
        </mxCell>
        <mxCell id="SJhHL3FRq7F6iEyKLstd-6" value="Reklamacja" style="html=1;whiteSpace=wrap;" parent="1" vertex="1">
          <mxGeometry x="80" y="130" width="130" height="30" as="geometry" />
        </mxCell>
        <mxCell id="SJhHL3FRq7F6iEyKLstd-7" value="Zwrot" style="html=1;whiteSpace=wrap;" parent="1" vertex="1">
          <mxGeometry x="790" y="210" width="110" height="35" as="geometry" />
        </mxCell>
        <mxCell id="SJhHL3FRq7F6iEyKLstd-8" value="" style="endArrow=block;endSize=16;endFill=0;html=1;rounded=0;exitX=0.5;exitY=1;exitDx=0;exitDy=0;entryX=0.25;entryY=0;entryDx=0;entryDy=0;" parent="1" source="SJhHL3FRq7F6iEyKLstd-2" target="SJhHL3FRq7F6iEyKLstd-3" edge="1">
          <mxGeometry width="160" relative="1" as="geometry">
            <mxPoint x="390" y="340" as="sourcePoint" />
            <mxPoint x="550" y="340" as="targetPoint" />
          </mxGeometry>
        </mxCell>
        <mxCell id="SJhHL3FRq7F6iEyKLstd-9" value="" style="endArrow=block;endSize=16;endFill=0;html=1;rounded=0;exitX=0.25;exitY=1;exitDx=0;exitDy=0;entryX=0.75;entryY=0;entryDx=0;entryDy=0;" parent="1" source="SJhHL3FRq7F6iEyKLstd-4" target="SJhHL3FRq7F6iEyKLstd-3" edge="1">
          <mxGeometry width="160" relative="1" as="geometry">
            <mxPoint x="568" y="110" as="sourcePoint" />
            <mxPoint x="514" y="218" as="targetPoint" />
          </mxGeometry>
        </mxCell>
        <mxCell id="SJhHL3FRq7F6iEyKLstd-15" value="" style="endArrow=none;html=1;rounded=0;entryX=0;entryY=0;entryDx=0;entryDy=0;exitX=1;exitY=0.5;exitDx=0;exitDy=0;" parent="1" source="SJhHL3FRq7F6iEyKLstd-6" target="SJhHL3FRq7F6iEyKLstd-3" edge="1">
          <mxGeometry width="50" height="50" relative="1" as="geometry">
            <mxPoint x="440" y="360" as="sourcePoint" />
            <mxPoint x="490" y="310" as="targetPoint" />
          </mxGeometry>
        </mxCell>
        <mxCell id="SJhHL3FRq7F6iEyKLstd-23" value="zgłasza" style="edgeLabel;html=1;align=center;verticalAlign=middle;resizable=0;points=[];" parent="SJhHL3FRq7F6iEyKLstd-15" vertex="1" connectable="0">
          <mxGeometry x="-0.0123" relative="1" as="geometry">
            <mxPoint as="offset" />
          </mxGeometry>
        </mxCell>
        <mxCell id="SJhHL3FRq7F6iEyKLstd-16" value="" style="endArrow=none;html=1;rounded=0;entryX=0;entryY=0.75;entryDx=0;entryDy=0;exitX=0.5;exitY=0;exitDx=0;exitDy=0;" parent="1" source="SJhHL3FRq7F6iEyKLstd-5" target="SJhHL3FRq7F6iEyKLstd-3" edge="1">
          <mxGeometry width="50" height="50" relative="1" as="geometry">
            <mxPoint x="420" y="400" as="sourcePoint" />
            <mxPoint x="470" y="350" as="targetPoint" />
          </mxGeometry>
        </mxCell>
        <mxCell id="SJhHL3FRq7F6iEyKLstd-27" value="wykonuje" style="edgeLabel;html=1;align=center;verticalAlign=middle;resizable=0;points=[];" parent="SJhHL3FRq7F6iEyKLstd-16" vertex="1" connectable="0">
          <mxGeometry x="0.0164" relative="1" as="geometry">
            <mxPoint as="offset" />
          </mxGeometry>
        </mxCell>
        <mxCell id="SJhHL3FRq7F6iEyKLstd-17" value="" style="endArrow=none;html=1;rounded=0;entryX=0.25;entryY=1;entryDx=0;entryDy=0;exitX=0.25;exitY=0;exitDx=0;exitDy=0;" parent="1" source="SJhHL3FRq7F6iEyKLstd-1" target="SJhHL3FRq7F6iEyKLstd-3" edge="1">
          <mxGeometry width="50" height="50" relative="1" as="geometry">
            <mxPoint x="440" y="360" as="sourcePoint" />
            <mxPoint x="490" y="310" as="targetPoint" />
          </mxGeometry>
        </mxCell>
        <mxCell id="SJhHL3FRq7F6iEyKLstd-52" value="nadaje" style="edgeLabel;html=1;align=center;verticalAlign=middle;resizable=0;points=[];" parent="SJhHL3FRq7F6iEyKLstd-17" vertex="1" connectable="0">
          <mxGeometry x="-0.0669" y="3" relative="1" as="geometry">
            <mxPoint as="offset" />
          </mxGeometry>
        </mxCell>
        <mxCell id="SJhHL3FRq7F6iEyKLstd-18" value="" style="endArrow=none;html=1;rounded=0;entryX=0.75;entryY=1;entryDx=0;entryDy=0;exitX=0.75;exitY=0;exitDx=0;exitDy=0;" parent="1" source="SJhHL3FRq7F6iEyKLstd-1" target="SJhHL3FRq7F6iEyKLstd-3" edge="1">
          <mxGeometry width="50" height="50" relative="1" as="geometry">
            <mxPoint x="440" y="360" as="sourcePoint" />
            <mxPoint x="490" y="310" as="targetPoint" />
          </mxGeometry>
        </mxCell>
        <mxCell id="SJhHL3FRq7F6iEyKLstd-53" value="Text" style="edgeLabel;html=1;align=center;verticalAlign=middle;resizable=0;points=[];" parent="SJhHL3FRq7F6iEyKLstd-18" vertex="1" connectable="0">
          <mxGeometry x="-0.0583" y="-6" relative="1" as="geometry">
            <mxPoint as="offset" />
          </mxGeometry>
        </mxCell>
        <mxCell id="SJhHL3FRq7F6iEyKLstd-54" value="odbiera" style="edgeLabel;html=1;align=center;verticalAlign=middle;resizable=0;points=[];" parent="SJhHL3FRq7F6iEyKLstd-18" vertex="1" connectable="0">
          <mxGeometry x="-0.0675" y="-9" relative="1" as="geometry">
            <mxPoint as="offset" />
          </mxGeometry>
        </mxCell>
        <mxCell id="SJhHL3FRq7F6iEyKLstd-19" value="" style="endArrow=none;html=1;rounded=0;entryX=1;entryY=0.5;entryDx=0;entryDy=0;exitX=0;exitY=0.5;exitDx=0;exitDy=0;" parent="1" source="SJhHL3FRq7F6iEyKLstd-7" target="SJhHL3FRq7F6iEyKLstd-3" edge="1">
          <mxGeometry width="50" height="50" relative="1" as="geometry">
            <mxPoint x="440" y="360" as="sourcePoint" />
            <mxPoint x="490" y="310" as="targetPoint" />
          </mxGeometry>
        </mxCell>
        <mxCell id="SJhHL3FRq7F6iEyKLstd-45" value="wykonuje" style="edgeLabel;html=1;align=center;verticalAlign=middle;resizable=0;points=[];" parent="SJhHL3FRq7F6iEyKLstd-19" vertex="1" connectable="0">
          <mxGeometry x="0.0685" y="-1" relative="1" as="geometry">
            <mxPoint as="offset" />
          </mxGeometry>
        </mxCell>
        <mxCell id="SJhHL3FRq7F6iEyKLstd-20" value="podmiot" style="text;html=1;align=center;verticalAlign=middle;whiteSpace=wrap;rounded=0;" parent="1" vertex="1">
          <mxGeometry x="210" y="120" width="60" height="30" as="geometry" />
        </mxCell>
        <mxCell id="SJhHL3FRq7F6iEyKLstd-21" value="reklamujący" style="text;html=1;align=center;verticalAlign=middle;whiteSpace=wrap;rounded=0;" parent="1" vertex="1">
          <mxGeometry x="359" y="160" width="60" height="30" as="geometry" />
        </mxCell>
        <mxCell id="SJhHL3FRq7F6iEyKLstd-24" value="*" style="text;html=1;align=center;verticalAlign=middle;whiteSpace=wrap;rounded=0;" parent="1" vertex="1">
          <mxGeometry x="210" y="160" width="40" height="20" as="geometry" />
        </mxCell>
        <mxCell id="SJhHL3FRq7F6iEyKLstd-25" value="1" style="text;html=1;align=center;verticalAlign=middle;whiteSpace=wrap;rounded=0;" parent="1" vertex="1">
          <mxGeometry x="364" y="200" width="30" height="20" as="geometry" />
        </mxCell>
        <mxCell id="SJhHL3FRq7F6iEyKLstd-29" value="płatnik" style="text;html=1;align=center;verticalAlign=middle;whiteSpace=wrap;rounded=0;" parent="1" vertex="1">
          <mxGeometry x="334" y="230" width="60" height="30" as="geometry" />
        </mxCell>
        <mxCell id="SJhHL3FRq7F6iEyKLstd-30" value="1" style="text;html=1;align=center;verticalAlign=middle;whiteSpace=wrap;rounded=0;" parent="1" vertex="1">
          <mxGeometry x="364" y="260" width="30" height="20" as="geometry" />
        </mxCell>
        <mxCell id="SJhHL3FRq7F6iEyKLstd-31" value="podmiot" style="text;html=1;align=center;verticalAlign=middle;whiteSpace=wrap;rounded=0;" parent="1" vertex="1">
          <mxGeometry x="130" y="340" width="60" height="30" as="geometry" />
        </mxCell>
        <mxCell id="SJhHL3FRq7F6iEyKLstd-32" value="*" style="text;html=1;align=center;verticalAlign=middle;whiteSpace=wrap;rounded=0;" parent="1" vertex="1">
          <mxGeometry x="160" y="360" width="60" height="30" as="geometry" />
        </mxCell>
        <mxCell id="SJhHL3FRq7F6iEyKLstd-33" value="" style="endArrow=none;html=1;rounded=0;entryX=0;entryY=0.5;entryDx=0;entryDy=0;exitX=0.75;exitY=1;exitDx=0;exitDy=0;" parent="1" source="SJhHL3FRq7F6iEyKLstd-5" target="SJhHL3FRq7F6iEyKLstd-1" edge="1">
          <mxGeometry width="50" height="50" relative="1" as="geometry">
            <mxPoint x="390" y="310" as="sourcePoint" />
            <mxPoint x="440" y="260" as="targetPoint" />
          </mxGeometry>
        </mxCell>
        <mxCell id="SJhHL3FRq7F6iEyKLstd-34" value="opłaca" style="edgeLabel;html=1;align=center;verticalAlign=middle;resizable=0;points=[];" parent="SJhHL3FRq7F6iEyKLstd-33" vertex="1" connectable="0">
          <mxGeometry x="0.0292" y="-2" relative="1" as="geometry">
            <mxPoint as="offset" />
          </mxGeometry>
        </mxCell>
        <mxCell id="SJhHL3FRq7F6iEyKLstd-35" value="obiekt" style="text;html=1;align=center;verticalAlign=middle;whiteSpace=wrap;rounded=0;" parent="1" vertex="1">
          <mxGeometry x="354" y="390" width="40" height="30" as="geometry" />
        </mxCell>
        <mxCell id="SJhHL3FRq7F6iEyKLstd-36" value="podmiot" style="text;html=1;align=center;verticalAlign=middle;whiteSpace=wrap;rounded=0;" parent="1" vertex="1">
          <mxGeometry x="220" y="390" width="60" height="30" as="geometry" />
        </mxCell>
        <mxCell id="SJhHL3FRq7F6iEyKLstd-37" value="1" style="text;html=1;align=center;verticalAlign=middle;whiteSpace=wrap;rounded=0;" parent="1" vertex="1">
          <mxGeometry x="200" y="420" width="60" height="30" as="geometry" />
        </mxCell>
        <mxCell id="SJhHL3FRq7F6iEyKLstd-38" value="1" style="text;html=1;align=center;verticalAlign=middle;whiteSpace=wrap;rounded=0;" parent="1" vertex="1">
          <mxGeometry x="344" y="420" width="50" height="30" as="geometry" />
        </mxCell>
        <mxCell id="SJhHL3FRq7F6iEyKLstd-42" value="klient" style="text;html=1;align=center;verticalAlign=middle;whiteSpace=wrap;rounded=0;" parent="1" vertex="1">
          <mxGeometry x="404" y="250" width="60" height="30" as="geometry" />
        </mxCell>
        <mxCell id="SJhHL3FRq7F6iEyKLstd-43" value="klient" style="text;html=1;align=center;verticalAlign=middle;whiteSpace=wrap;rounded=0;" parent="1" vertex="1">
          <mxGeometry x="510" y="245" width="60" height="30" as="geometry" />
        </mxCell>
        <mxCell id="SJhHL3FRq7F6iEyKLstd-46" value="1" style="text;html=1;align=center;verticalAlign=middle;whiteSpace=wrap;rounded=0;" parent="1" vertex="1">
          <mxGeometry x="540" y="245" width="60" height="30" as="geometry" />
        </mxCell>
        <mxCell id="SJhHL3FRq7F6iEyKLstd-47" value="1" style="text;html=1;align=center;verticalAlign=middle;whiteSpace=wrap;rounded=0;" parent="1" vertex="1">
          <mxGeometry x="440" y="250" width="60" height="30" as="geometry" />
        </mxCell>
        <mxCell id="SJhHL3FRq7F6iEyKLstd-48" value="*" style="text;html=1;align=center;verticalAlign=middle;whiteSpace=wrap;rounded=0;" parent="1" vertex="1">
          <mxGeometry x="434" y="390" width="60" height="30" as="geometry" />
        </mxCell>
        <mxCell id="SJhHL3FRq7F6iEyKLstd-49" value="*" style="text;html=1;align=center;verticalAlign=middle;whiteSpace=wrap;rounded=0;" parent="1" vertex="1">
          <mxGeometry x="740" y="230" width="60" height="30" as="geometry" />
        </mxCell>
        <mxCell id="SJhHL3FRq7F6iEyKLstd-50" value="obiekt" style="text;html=1;align=center;verticalAlign=middle;whiteSpace=wrap;rounded=0;" parent="1" vertex="1">
          <mxGeometry x="409" y="380" width="40" height="30" as="geometry" />
        </mxCell>
        <mxCell id="SJhHL3FRq7F6iEyKLstd-51" value="obiekt" style="text;html=1;align=center;verticalAlign=middle;whiteSpace=wrap;rounded=0;" parent="1" vertex="1">
          <mxGeometry x="519" y="380" width="40" height="30" as="geometry" />
        </mxCell>
        <mxCell id="SJhHL3FRq7F6iEyKLstd-56" value="podmiot" style="text;html=1;align=center;verticalAlign=middle;whiteSpace=wrap;rounded=0;" parent="1" vertex="1">
          <mxGeometry x="730" y="200" width="60" height="30" as="geometry" />
        </mxCell>
        <mxCell id="SJhHL3FRq7F6iEyKLstd-57" value="klient" style="text;html=1;align=center;verticalAlign=middle;whiteSpace=wrap;rounded=0;" parent="1" vertex="1">
          <mxGeometry x="600" y="200" width="60" height="30" as="geometry" />
        </mxCell>
        <mxCell id="SJhHL3FRq7F6iEyKLstd-59" value="1" style="text;html=1;align=center;verticalAlign=middle;whiteSpace=wrap;rounded=0;" parent="1" vertex="1">
          <mxGeometry x="590" y="230" width="60" height="30" as="geometry" />
        </mxCell>
        <mxCell id="SJhHL3FRq7F6iEyKLstd-60" value="*" style="text;html=1;align=center;verticalAlign=middle;whiteSpace=wrap;rounded=0;" parent="1" vertex="1">
          <mxGeometry x="540" y="390" width="60" height="30" as="geometry" />
        </mxCell>
        <mxCell id="UiuZtKGrybd-7sfFobG--9" value="Przesyłka" style="swimlane;fontStyle=1;align=center;verticalAlign=top;childLayout=stackLayout;horizontal=1;startSize=26;horizontalStack=0;resizeParent=1;resizeParentMax=0;resizeLast=0;collapsible=1;marginBottom=0;whiteSpace=wrap;html=1;" vertex="1" parent="1">
          <mxGeometry x="449" y="1040" width="244" height="208" as="geometry" />
        </mxCell>
        <mxCell id="UiuZtKGrybd-7sfFobG--10" value="+ nrPrzesylki:&amp;nbsp; Integer" style="text;strokeColor=none;fillColor=none;align=left;verticalAlign=top;spacingLeft=4;spacingRight=4;overflow=hidden;rotatable=0;points=[[0,0.5],[1,0.5]];portConstraint=eastwest;whiteSpace=wrap;html=1;" vertex="1" parent="UiuZtKGrybd-7sfFobG--9">
          <mxGeometry y="26" width="244" height="26" as="geometry" />
        </mxCell>
        <mxCell id="UiuZtKGrybd-7sfFobG--11" value="+ waga:&amp;nbsp; Double" style="text;strokeColor=none;fillColor=none;align=left;verticalAlign=top;spacingLeft=4;spacingRight=4;overflow=hidden;rotatable=0;points=[[0,0.5],[1,0.5]];portConstraint=eastwest;whiteSpace=wrap;html=1;" vertex="1" parent="UiuZtKGrybd-7sfFobG--9">
          <mxGeometry y="52" width="244" height="26" as="geometry" />
        </mxCell>
        <mxCell id="UiuZtKGrybd-7sfFobG--12" value="+ kodAutomatuPrzesylkowego:&amp;nbsp; String" style="text;strokeColor=none;fillColor=none;align=left;verticalAlign=top;spacingLeft=4;spacingRight=4;overflow=hidden;rotatable=0;points=[[0,0.5],[1,0.5]];portConstraint=eastwest;whiteSpace=wrap;html=1;" vertex="1" parent="UiuZtKGrybd-7sfFobG--9">
          <mxGeometry y="78" width="244" height="26" as="geometry" />
        </mxCell>
        <mxCell id="UiuZtKGrybd-7sfFobG--13" value="+ status: String" style="text;strokeColor=none;fillColor=none;align=left;verticalAlign=top;spacingLeft=4;spacingRight=4;overflow=hidden;rotatable=0;points=[[0,0.5],[1,0.5]];portConstraint=eastwest;whiteSpace=wrap;html=1;" vertex="1" parent="UiuZtKGrybd-7sfFobG--9">
          <mxGeometry y="104" width="244" height="26" as="geometry" />
        </mxCell>
        <mxCell id="UiuZtKGrybd-7sfFobG--71" value="+ rozmiar: String" style="text;strokeColor=none;fillColor=none;align=left;verticalAlign=top;spacingLeft=4;spacingRight=4;overflow=hidden;rotatable=0;points=[[0,0.5],[1,0.5]];portConstraint=eastwest;whiteSpace=wrap;html=1;" vertex="1" parent="UiuZtKGrybd-7sfFobG--9">
          <mxGeometry y="130" width="244" height="26" as="geometry" />
        </mxCell>
        <mxCell id="UiuZtKGrybd-7sfFobG--14" value="+ dataWysyłki = Date" style="text;strokeColor=none;fillColor=none;align=left;verticalAlign=top;spacingLeft=4;spacingRight=4;overflow=hidden;rotatable=0;points=[[0,0.5],[1,0.5]];portConstraint=eastwest;whiteSpace=wrap;html=1;" vertex="1" parent="UiuZtKGrybd-7sfFobG--9">
          <mxGeometry y="156" width="244" height="26" as="geometry" />
        </mxCell>
        <mxCell id="UiuZtKGrybd-7sfFobG--15" value="+ dataDostarczenia = Date" style="text;strokeColor=none;fillColor=none;align=left;verticalAlign=top;spacingLeft=4;spacingRight=4;overflow=hidden;rotatable=0;points=[[0,0.5],[1,0.5]];portConstraint=eastwest;whiteSpace=wrap;html=1;" vertex="1" parent="UiuZtKGrybd-7sfFobG--9">
          <mxGeometry y="182" width="244" height="26" as="geometry" />
        </mxCell>
        <mxCell id="UiuZtKGrybd-7sfFobG--16" value="Reklamacja" style="swimlane;fontStyle=1;align=center;verticalAlign=top;childLayout=stackLayout;horizontal=1;startSize=26;horizontalStack=0;resizeParent=1;resizeParentMax=0;resizeLast=0;collapsible=1;marginBottom=0;whiteSpace=wrap;html=1;" vertex="1" parent="1">
          <mxGeometry x="305" y="1650" width="160" height="52" as="geometry" />
        </mxCell>
        <mxCell id="UiuZtKGrybd-7sfFobG--17" value="+ idReklamacji: Integer" style="text;strokeColor=none;fillColor=none;align=left;verticalAlign=top;spacingLeft=4;spacingRight=4;overflow=hidden;rotatable=0;points=[[0,0.5],[1,0.5]];portConstraint=eastwest;whiteSpace=wrap;html=1;" vertex="1" parent="UiuZtKGrybd-7sfFobG--16">
          <mxGeometry y="26" width="160" height="26" as="geometry" />
        </mxCell>
        <mxCell id="UiuZtKGrybd-7sfFobG--18" value="Płatność" style="swimlane;fontStyle=1;align=center;verticalAlign=top;childLayout=stackLayout;horizontal=1;startSize=26;horizontalStack=0;resizeParent=1;resizeParentMax=0;resizeLast=0;collapsible=1;marginBottom=0;whiteSpace=wrap;html=1;" vertex="1" parent="1">
          <mxGeometry x="90" y="810" width="160" height="156" as="geometry" />
        </mxCell>
        <mxCell id="UiuZtKGrybd-7sfFobG--19" value="+ idPłatnosci: Integer" style="text;strokeColor=none;fillColor=none;align=left;verticalAlign=top;spacingLeft=4;spacingRight=4;overflow=hidden;rotatable=0;points=[[0,0.5],[1,0.5]];portConstraint=eastwest;whiteSpace=wrap;html=1;" vertex="1" parent="UiuZtKGrybd-7sfFobG--18">
          <mxGeometry y="26" width="160" height="26" as="geometry" />
        </mxCell>
        <mxCell id="UiuZtKGrybd-7sfFobG--20" value="+ kwota: Double" style="text;strokeColor=none;fillColor=none;align=left;verticalAlign=top;spacingLeft=4;spacingRight=4;overflow=hidden;rotatable=0;points=[[0,0.5],[1,0.5]];portConstraint=eastwest;whiteSpace=wrap;html=1;" vertex="1" parent="UiuZtKGrybd-7sfFobG--18">
          <mxGeometry y="52" width="160" height="26" as="geometry" />
        </mxCell>
        <mxCell id="UiuZtKGrybd-7sfFobG--21" value="+ data: Date" style="text;strokeColor=none;fillColor=none;align=left;verticalAlign=top;spacingLeft=4;spacingRight=4;overflow=hidden;rotatable=0;points=[[0,0.5],[1,0.5]];portConstraint=eastwest;whiteSpace=wrap;html=1;" vertex="1" parent="UiuZtKGrybd-7sfFobG--18">
          <mxGeometry y="78" width="160" height="26" as="geometry" />
        </mxCell>
        <mxCell id="UiuZtKGrybd-7sfFobG--22" value="+ metodaPlatnosci: String" style="text;strokeColor=none;fillColor=none;align=left;verticalAlign=top;spacingLeft=4;spacingRight=4;overflow=hidden;rotatable=0;points=[[0,0.5],[1,0.5]];portConstraint=eastwest;whiteSpace=wrap;html=1;" vertex="1" parent="UiuZtKGrybd-7sfFobG--18">
          <mxGeometry y="104" width="160" height="26" as="geometry" />
        </mxCell>
        <mxCell id="UiuZtKGrybd-7sfFobG--23" value="+ potwierdzenie: Bolean" style="text;strokeColor=none;fillColor=none;align=left;verticalAlign=top;spacingLeft=4;spacingRight=4;overflow=hidden;rotatable=0;points=[[0,0.5],[1,0.5]];portConstraint=eastwest;whiteSpace=wrap;html=1;" vertex="1" parent="UiuZtKGrybd-7sfFobG--18">
          <mxGeometry y="130" width="160" height="26" as="geometry" />
        </mxCell>
        <mxCell id="UiuZtKGrybd-7sfFobG--24" value="Kurier" style="swimlane;fontStyle=1;align=center;verticalAlign=top;childLayout=stackLayout;horizontal=1;startSize=26;horizontalStack=0;resizeParent=1;resizeParentMax=0;resizeLast=0;collapsible=1;marginBottom=0;whiteSpace=wrap;html=1;" vertex="1" parent="1">
          <mxGeometry x="427" y="533" width="160" height="52" as="geometry" />
        </mxCell>
        <mxCell id="UiuZtKGrybd-7sfFobG--25" value="+ idKuriera: Integer" style="text;strokeColor=none;fillColor=none;align=left;verticalAlign=top;spacingLeft=4;spacingRight=4;overflow=hidden;rotatable=0;points=[[0,0.5],[1,0.5]];portConstraint=eastwest;whiteSpace=wrap;html=1;" vertex="1" parent="UiuZtKGrybd-7sfFobG--24">
          <mxGeometry y="26" width="160" height="26" as="geometry" />
        </mxCell>
        <mxCell id="UiuZtKGrybd-7sfFobG--56" value="Klient" style="swimlane;fontStyle=1;align=center;verticalAlign=top;childLayout=stackLayout;horizontal=1;startSize=26;horizontalStack=0;resizeParent=1;resizeParentMax=0;resizeLast=0;collapsible=1;marginBottom=0;whiteSpace=wrap;html=1;" vertex="1" parent="1">
          <mxGeometry x="710" y="538" width="160" height="182" as="geometry" />
        </mxCell>
        <mxCell id="UiuZtKGrybd-7sfFobG--57" value="+ idKlienta: Integer" style="text;strokeColor=none;fillColor=none;align=left;verticalAlign=top;spacingLeft=4;spacingRight=4;overflow=hidden;rotatable=0;points=[[0,0.5],[1,0.5]];portConstraint=eastwest;whiteSpace=wrap;html=1;" vertex="1" parent="UiuZtKGrybd-7sfFobG--56">
          <mxGeometry y="26" width="160" height="26" as="geometry" />
        </mxCell>
        <mxCell id="UiuZtKGrybd-7sfFobG--58" value="+ ulica: String" style="text;strokeColor=none;fillColor=none;align=left;verticalAlign=top;spacingLeft=4;spacingRight=4;overflow=hidden;rotatable=0;points=[[0,0.5],[1,0.5]];portConstraint=eastwest;whiteSpace=wrap;html=1;" vertex="1" parent="UiuZtKGrybd-7sfFobG--56">
          <mxGeometry y="52" width="160" height="26" as="geometry" />
        </mxCell>
        <mxCell id="UiuZtKGrybd-7sfFobG--59" value="+ nrDomu: Integer" style="text;strokeColor=none;fillColor=none;align=left;verticalAlign=top;spacingLeft=4;spacingRight=4;overflow=hidden;rotatable=0;points=[[0,0.5],[1,0.5]];portConstraint=eastwest;whiteSpace=wrap;html=1;" vertex="1" parent="UiuZtKGrybd-7sfFobG--56">
          <mxGeometry y="78" width="160" height="26" as="geometry" />
        </mxCell>
        <mxCell id="UiuZtKGrybd-7sfFobG--60" value="+ nrLokalu: Integer" style="text;strokeColor=none;fillColor=none;align=left;verticalAlign=top;spacingLeft=4;spacingRight=4;overflow=hidden;rotatable=0;points=[[0,0.5],[1,0.5]];portConstraint=eastwest;whiteSpace=wrap;html=1;" vertex="1" parent="UiuZtKGrybd-7sfFobG--56">
          <mxGeometry y="104" width="160" height="26" as="geometry" />
        </mxCell>
        <mxCell id="UiuZtKGrybd-7sfFobG--61" value="+ miasto: String" style="text;strokeColor=none;fillColor=none;align=left;verticalAlign=top;spacingLeft=4;spacingRight=4;overflow=hidden;rotatable=0;points=[[0,0.5],[1,0.5]];portConstraint=eastwest;whiteSpace=wrap;html=1;" vertex="1" parent="UiuZtKGrybd-7sfFobG--56">
          <mxGeometry y="130" width="160" height="26" as="geometry" />
        </mxCell>
        <mxCell id="UiuZtKGrybd-7sfFobG--62" value="+ nrTelefonu: String" style="text;strokeColor=none;fillColor=none;align=left;verticalAlign=top;spacingLeft=4;spacingRight=4;overflow=hidden;rotatable=0;points=[[0,0.5],[1,0.5]];portConstraint=eastwest;whiteSpace=wrap;html=1;" vertex="1" parent="UiuZtKGrybd-7sfFobG--56">
          <mxGeometry y="156" width="160" height="26" as="geometry" />
        </mxCell>
        <mxCell id="UiuZtKGrybd-7sfFobG--64" value="Użytkownik" style="swimlane;fontStyle=1;align=center;verticalAlign=top;childLayout=stackLayout;horizontal=1;startSize=26;horizontalStack=0;resizeParent=1;resizeParentMax=0;resizeLast=0;collapsible=1;marginBottom=0;whiteSpace=wrap;html=1;" vertex="1" parent="1">
          <mxGeometry x="460" y="720" width="200" height="130" as="geometry" />
        </mxCell>
        <mxCell id="UiuZtKGrybd-7sfFobG--65" value="+ email: String" style="text;strokeColor=none;fillColor=none;align=left;verticalAlign=top;spacingLeft=4;spacingRight=4;overflow=hidden;rotatable=0;points=[[0,0.5],[1,0.5]];portConstraint=eastwest;whiteSpace=wrap;html=1;" vertex="1" parent="UiuZtKGrybd-7sfFobG--64">
          <mxGeometry y="26" width="200" height="26" as="geometry" />
        </mxCell>
        <mxCell id="UiuZtKGrybd-7sfFobG--66" value="+ hasło: String" style="text;strokeColor=none;fillColor=none;align=left;verticalAlign=top;spacingLeft=4;spacingRight=4;overflow=hidden;rotatable=0;points=[[0,0.5],[1,0.5]];portConstraint=eastwest;whiteSpace=wrap;html=1;" vertex="1" parent="UiuZtKGrybd-7sfFobG--64">
          <mxGeometry y="52" width="200" height="26" as="geometry" />
        </mxCell>
        <mxCell id="UiuZtKGrybd-7sfFobG--67" value="+ imie: String" style="text;strokeColor=none;fillColor=none;align=left;verticalAlign=top;spacingLeft=4;spacingRight=4;overflow=hidden;rotatable=0;points=[[0,0.5],[1,0.5]];portConstraint=eastwest;whiteSpace=wrap;html=1;" vertex="1" parent="UiuZtKGrybd-7sfFobG--64">
          <mxGeometry y="78" width="200" height="26" as="geometry" />
        </mxCell>
        <mxCell id="UiuZtKGrybd-7sfFobG--68" value="+ nazwisko: String" style="text;strokeColor=none;fillColor=none;align=left;verticalAlign=top;spacingLeft=4;spacingRight=4;overflow=hidden;rotatable=0;points=[[0,0.5],[1,0.5]];portConstraint=eastwest;whiteSpace=wrap;html=1;" vertex="1" parent="UiuZtKGrybd-7sfFobG--64">
          <mxGeometry y="104" width="200" height="26" as="geometry" />
        </mxCell>
        <mxCell id="UiuZtKGrybd-7sfFobG--69" value="" style="endArrow=block;endSize=16;endFill=0;html=1;rounded=0;entryX=0.75;entryY=0;entryDx=0;entryDy=0;" edge="1" parent="1" source="UiuZtKGrybd-7sfFobG--56" target="UiuZtKGrybd-7sfFobG--64">
          <mxGeometry width="160" relative="1" as="geometry">
            <mxPoint x="397" y="1640" as="sourcePoint" />
            <mxPoint x="503" y="1570" as="targetPoint" />
          </mxGeometry>
        </mxCell>
        <mxCell id="UiuZtKGrybd-7sfFobG--70" value="" style="endArrow=block;endSize=16;endFill=0;html=1;rounded=0;entryX=0.25;entryY=0;entryDx=0;entryDy=0;exitX=0.506;exitY=0.84;exitDx=0;exitDy=0;exitPerimeter=0;" edge="1" parent="1" source="UiuZtKGrybd-7sfFobG--25" target="UiuZtKGrybd-7sfFobG--64">
          <mxGeometry width="160" relative="1" as="geometry">
            <mxPoint x="535" y="1469" as="sourcePoint" />
            <mxPoint x="475" y="1463" as="targetPoint" />
          </mxGeometry>
        </mxCell>
        <mxCell id="UiuZtKGrybd-7sfFobG--80" value="Zwrot" style="swimlane;fontStyle=1;align=center;verticalAlign=top;childLayout=stackLayout;horizontal=1;startSize=26;horizontalStack=0;resizeParent=1;resizeParentMax=0;resizeLast=0;collapsible=1;marginBottom=0;whiteSpace=wrap;html=1;" vertex="1" parent="1">
          <mxGeometry x="870" y="748" width="160" height="52" as="geometry" />
        </mxCell>
        <mxCell id="UiuZtKGrybd-7sfFobG--81" value="+ idZwrotu: Integer" style="text;strokeColor=none;fillColor=none;align=left;verticalAlign=top;spacingLeft=4;spacingRight=4;overflow=hidden;rotatable=0;points=[[0,0.5],[1,0.5]];portConstraint=eastwest;whiteSpace=wrap;html=1;" vertex="1" parent="UiuZtKGrybd-7sfFobG--80">
          <mxGeometry y="26" width="160" height="26" as="geometry" />
        </mxCell>
        <mxCell id="UiuZtKGrybd-7sfFobG--88" value="" style="endArrow=none;html=1;rounded=0;entryX=0;entryY=1;entryDx=0;entryDy=0;exitX=0;exitY=0.5;exitDx=0;exitDy=0;" edge="1" parent="1" source="UiuZtKGrybd-7sfFobG--81" target="UiuZtKGrybd-7sfFobG--92">
          <mxGeometry width="50" height="50" relative="1" as="geometry">
            <mxPoint x="850" y="787" as="sourcePoint" />
            <mxPoint x="675" y="787" as="targetPoint" />
          </mxGeometry>
        </mxCell>
        <mxCell id="UiuZtKGrybd-7sfFobG--89" value="wykonuje" style="edgeLabel;html=1;align=center;verticalAlign=middle;resizable=0;points=[];" vertex="1" connectable="0" parent="UiuZtKGrybd-7sfFobG--88">
          <mxGeometry x="0.0685" y="-1" relative="1" as="geometry">
            <mxPoint as="offset" />
          </mxGeometry>
        </mxCell>
        <mxCell id="UiuZtKGrybd-7sfFobG--90" value="*" style="text;html=1;align=center;verticalAlign=middle;whiteSpace=wrap;rounded=0;" vertex="1" parent="1">
          <mxGeometry x="800" y="789" width="60" height="30" as="geometry" />
        </mxCell>
        <mxCell id="UiuZtKGrybd-7sfFobG--91" value="podmiot" style="text;html=1;align=center;verticalAlign=middle;whiteSpace=wrap;rounded=0;" vertex="1" parent="1">
          <mxGeometry x="790" y="759" width="60" height="30" as="geometry" />
        </mxCell>
        <mxCell id="UiuZtKGrybd-7sfFobG--92" value="klient" style="text;html=1;align=center;verticalAlign=middle;whiteSpace=wrap;rounded=0;" vertex="1" parent="1">
          <mxGeometry x="660" y="759" width="60" height="30" as="geometry" />
        </mxCell>
        <mxCell id="UiuZtKGrybd-7sfFobG--104" value="" style="endArrow=none;html=1;rounded=0;entryX=0.185;entryY=1.048;entryDx=0;entryDy=0;exitX=0.25;exitY=0;exitDx=0;exitDy=0;entryPerimeter=0;" edge="1" parent="1" source="UiuZtKGrybd-7sfFobG--9" target="UiuZtKGrybd-7sfFobG--68">
          <mxGeometry width="50" height="50" relative="1" as="geometry">
            <mxPoint x="531" y="1035" as="sourcePoint" />
            <mxPoint x="532" y="870" as="targetPoint" />
          </mxGeometry>
        </mxCell>
        <mxCell id="UiuZtKGrybd-7sfFobG--105" value="nadaje" style="edgeLabel;html=1;align=center;verticalAlign=middle;resizable=0;points=[];" vertex="1" connectable="0" parent="UiuZtKGrybd-7sfFobG--104">
          <mxGeometry x="-0.0669" y="3" relative="1" as="geometry">
            <mxPoint as="offset" />
          </mxGeometry>
        </mxCell>
        <mxCell id="UiuZtKGrybd-7sfFobG--106" value="" style="endArrow=none;html=1;rounded=0;entryX=0.848;entryY=0.982;entryDx=0;entryDy=0;exitX=0.75;exitY=0;exitDx=0;exitDy=0;entryPerimeter=0;" edge="1" parent="1" source="UiuZtKGrybd-7sfFobG--9" target="UiuZtKGrybd-7sfFobG--68">
          <mxGeometry width="50" height="50" relative="1" as="geometry">
            <mxPoint x="639" y="1035" as="sourcePoint" />
            <mxPoint x="639" y="870" as="targetPoint" />
          </mxGeometry>
        </mxCell>
        <mxCell id="UiuZtKGrybd-7sfFobG--107" value="Text" style="edgeLabel;html=1;align=center;verticalAlign=middle;resizable=0;points=[];" vertex="1" connectable="0" parent="UiuZtKGrybd-7sfFobG--106">
          <mxGeometry x="-0.0583" y="-6" relative="1" as="geometry">
            <mxPoint as="offset" />
          </mxGeometry>
        </mxCell>
        <mxCell id="UiuZtKGrybd-7sfFobG--108" value="odbiera" style="edgeLabel;html=1;align=center;verticalAlign=middle;resizable=0;points=[];" vertex="1" connectable="0" parent="UiuZtKGrybd-7sfFobG--106">
          <mxGeometry x="-0.0675" y="-9" relative="1" as="geometry">
            <mxPoint as="offset" />
          </mxGeometry>
        </mxCell>
        <mxCell id="UiuZtKGrybd-7sfFobG--109" value="klient" style="text;html=1;align=center;verticalAlign=middle;whiteSpace=wrap;rounded=0;" vertex="1" parent="1">
          <mxGeometry x="450" y="860" width="60" height="30" as="geometry" />
        </mxCell>
        <mxCell id="UiuZtKGrybd-7sfFobG--110" value="klient" style="text;html=1;align=center;verticalAlign=middle;whiteSpace=wrap;rounded=0;" vertex="1" parent="1">
          <mxGeometry x="577" y="860" width="60" height="30" as="geometry" />
        </mxCell>
        <mxCell id="UiuZtKGrybd-7sfFobG--111" value="1" style="text;html=1;align=center;verticalAlign=middle;whiteSpace=wrap;rounded=0;" vertex="1" parent="1">
          <mxGeometry x="615" y="860" width="60" height="30" as="geometry" />
        </mxCell>
        <mxCell id="UiuZtKGrybd-7sfFobG--112" value="1" style="text;html=1;align=center;verticalAlign=middle;whiteSpace=wrap;rounded=0;" vertex="1" parent="1">
          <mxGeometry x="494" y="860" width="60" height="30" as="geometry" />
        </mxCell>
        <mxCell id="UiuZtKGrybd-7sfFobG--113" value="obiekt" style="text;html=1;align=center;verticalAlign=middle;whiteSpace=wrap;rounded=0;" vertex="1" parent="1">
          <mxGeometry x="460" y="1005" width="40" height="30" as="geometry" />
        </mxCell>
        <mxCell id="UiuZtKGrybd-7sfFobG--114" value="obiekt" style="text;html=1;align=center;verticalAlign=middle;whiteSpace=wrap;rounded=0;" vertex="1" parent="1">
          <mxGeometry x="590" y="1005" width="40" height="30" as="geometry" />
        </mxCell>
        <mxCell id="UiuZtKGrybd-7sfFobG--115" value="*" style="text;html=1;align=center;verticalAlign=middle;whiteSpace=wrap;rounded=0;" vertex="1" parent="1">
          <mxGeometry x="490" y="1005" width="60" height="30" as="geometry" />
        </mxCell>
        <mxCell id="UiuZtKGrybd-7sfFobG--116" value="*" style="text;html=1;align=center;verticalAlign=middle;whiteSpace=wrap;rounded=0;" vertex="1" parent="1">
          <mxGeometry x="615" y="1010" width="60" height="30" as="geometry" />
        </mxCell>
        <mxCell id="UiuZtKGrybd-7sfFobG--118" value="obiekt" style="text;html=1;align=center;verticalAlign=middle;whiteSpace=wrap;rounded=0;" vertex="1" parent="1">
          <mxGeometry x="394" y="1000" width="40" height="30" as="geometry" />
        </mxCell>
        <mxCell id="UiuZtKGrybd-7sfFobG--119" value="podmiot" style="text;html=1;align=center;verticalAlign=middle;whiteSpace=wrap;rounded=0;" vertex="1" parent="1">
          <mxGeometry x="250" y="936" width="60" height="30" as="geometry" />
        </mxCell>
        <mxCell id="UiuZtKGrybd-7sfFobG--120" value="1" style="text;html=1;align=center;verticalAlign=middle;whiteSpace=wrap;rounded=0;" vertex="1" parent="1">
          <mxGeometry x="230" y="980" width="50" height="25" as="geometry" />
        </mxCell>
        <mxCell id="UiuZtKGrybd-7sfFobG--121" value="1" style="text;html=1;align=center;verticalAlign=middle;whiteSpace=wrap;rounded=0;" vertex="1" parent="1">
          <mxGeometry x="384" y="1030" width="50" height="30" as="geometry" />
        </mxCell>
        <mxCell id="UiuZtKGrybd-7sfFobG--122" value="" style="endArrow=none;html=1;rounded=0;entryX=0;entryY=0;entryDx=0;entryDy=0;exitX=1.017;exitY=1.154;exitDx=0;exitDy=0;exitPerimeter=0;" edge="1" parent="1" source="UiuZtKGrybd-7sfFobG--23" target="UiuZtKGrybd-7sfFobG--9">
          <mxGeometry width="50" height="50" relative="1" as="geometry">
            <mxPoint x="210" y="1120" as="sourcePoint" />
            <mxPoint x="421" y="1135" as="targetPoint" />
          </mxGeometry>
        </mxCell>
        <mxCell id="UiuZtKGrybd-7sfFobG--123" value="opłaca" style="edgeLabel;html=1;align=center;verticalAlign=middle;resizable=0;points=[];" vertex="1" connectable="0" parent="UiuZtKGrybd-7sfFobG--122">
          <mxGeometry x="0.0292" y="-2" relative="1" as="geometry">
            <mxPoint as="offset" />
          </mxGeometry>
        </mxCell>
        <mxCell id="UiuZtKGrybd-7sfFobG--125" value="" style="endArrow=none;html=1;rounded=0;entryX=0;entryY=0.5;entryDx=0;entryDy=0;exitX=1;exitY=0.5;exitDx=0;exitDy=0;" edge="1" parent="1" source="UiuZtKGrybd-7sfFobG--19" target="UiuZtKGrybd-7sfFobG--65">
          <mxGeometry width="50" height="50" relative="1" as="geometry">
            <mxPoint x="174" y="774" as="sourcePoint" />
            <mxPoint x="419" y="630" as="targetPoint" />
          </mxGeometry>
        </mxCell>
        <mxCell id="UiuZtKGrybd-7sfFobG--126" value="wykonuje" style="edgeLabel;html=1;align=center;verticalAlign=middle;resizable=0;points=[];" vertex="1" connectable="0" parent="UiuZtKGrybd-7sfFobG--125">
          <mxGeometry x="0.0164" relative="1" as="geometry">
            <mxPoint as="offset" />
          </mxGeometry>
        </mxCell>
        <mxCell id="UiuZtKGrybd-7sfFobG--127" value="podmiot" style="text;html=1;align=center;verticalAlign=middle;whiteSpace=wrap;rounded=0;" vertex="1" parent="1">
          <mxGeometry x="250" y="800" width="60" height="30" as="geometry" />
        </mxCell>
        <mxCell id="UiuZtKGrybd-7sfFobG--128" value="*" style="text;html=1;align=center;verticalAlign=middle;whiteSpace=wrap;rounded=0;" vertex="1" parent="1">
          <mxGeometry x="245" y="840" width="60" height="30" as="geometry" />
        </mxCell>
        <mxCell id="UiuZtKGrybd-7sfFobG--129" value="płatnik" style="text;html=1;align=center;verticalAlign=middle;whiteSpace=wrap;rounded=0;" vertex="1" parent="1">
          <mxGeometry x="399" y="740" width="60" height="30" as="geometry" />
        </mxCell>
        <mxCell id="UiuZtKGrybd-7sfFobG--130" value="1" style="text;html=1;align=center;verticalAlign=middle;whiteSpace=wrap;rounded=0;" vertex="1" parent="1">
          <mxGeometry x="427" y="769" width="30" height="20" as="geometry" />
        </mxCell>
      </root>
    </mxGraphModel>
  </diagram>
</mxfile>
